<svg width="146" height="24" viewBox="0 0 146 24" fill="none" xmlns="http://www.w3.org/2000/svg">
<path fill-rule="evenodd" clip-rule="evenodd" d="M21.9278 0H0V14.4819L21.9278 0ZM10.4074 24H24V2.11931L10.4074 24Z" fill="black"/>
<path d="M43.648 14.64C43.648 16.64 42.048 18.16 39.264 18.16C36.496 18.16 34.816 16.64 34.672 14.352H36.464C36.544 15.808 37.472 16.752 39.232 16.752C40.688 16.752 41.776 16.064 41.776 14.88C41.776 13.92 41.152 13.44 39.824 13.152L38.16 12.832C36.544 12.512 35.072 11.696 35.072 9.744C35.072 7.808 36.768 6.352 39.152 6.352C41.536 6.352 43.344 7.808 43.488 10.096H41.696C41.6 8.72 40.608 7.76 39.168 7.76C37.68 7.76 36.864 8.64 36.864 9.632C36.864 10.72 37.808 11.104 38.88 11.328L40.576 11.664C42.544 12.064 43.648 12.928 43.648 14.64ZM53.037 18L51.997 15.152H47.037L45.981 18H44.205L48.605 6.512H50.541L54.909 18H53.037ZM49.533 8.432L47.565 13.728H51.469L49.533 8.432ZM63.7065 6.512L59.4825 18H57.5465L53.3225 6.512H55.2105L58.5545 15.952L61.9465 6.512H63.7065ZM72.2455 16.464V18H64.9655V6.512H72.1335V8.048H66.7255V11.312H71.6535V12.848H66.7255V16.464H72.2455ZM79.3173 18L75.6853 9.216V18H74.0693V6.512H76.2293L80.0853 15.84L83.9253 6.512H86.1013V18H84.4693V9.2L80.8213 18H79.3173ZM93.1289 13.696V18H91.3529V13.696L87.2249 6.512H89.1449L92.2969 12.048L95.4809 6.512H97.2729L93.1289 13.696ZM99.1064 16.848C99.1064 17.568 98.6104 18.08 97.8744 18.08C97.1544 18.08 96.6424 17.568 96.6424 16.848C96.6424 16.096 97.1544 15.584 97.8744 15.584C98.6104 15.584 99.1064 16.096 99.1064 16.848ZM104.591 18H100.959V6.512H104.591C108.255 6.512 110.367 8.848 110.367 12.208C110.367 15.52 108.175 18 104.591 18ZM102.719 8.032V16.48H104.511C107.151 16.48 108.575 14.848 108.575 12.208C108.575 9.616 107.167 8.032 104.511 8.032H102.719ZM120.369 14.64C120.369 16.64 118.769 18.16 115.985 18.16C113.217 18.16 111.537 16.64 111.393 14.352H113.185C113.265 15.808 114.193 16.752 115.953 16.752C117.409 16.752 118.497 16.064 118.497 14.88C118.497 13.92 117.873 13.44 116.545 13.152L114.881 12.832C113.265 12.512 111.793 11.696 111.793 9.744C111.793 7.808 113.489 6.352 115.873 6.352C118.257 6.352 120.065 7.808 120.209 10.096H118.417C118.321 8.72 117.329 7.76 115.889 7.76C114.401 7.76 113.585 8.64 113.585 9.632C113.585 10.72 114.529 11.104 115.601 11.328L117.297 11.664C119.265 12.064 120.369 12.928 120.369 14.64ZM127.054 18.24C123.742 18.24 121.182 15.728 121.182 12.24C121.182 8.848 123.614 6.272 126.958 6.272C129.918 6.272 131.918 8.08 132.622 10.464H130.574C130.142 8.992 128.878 7.856 126.91 7.856C124.638 7.856 123.006 9.568 123.006 12.272C123.006 14.816 124.558 16.736 127.118 16.736C129.246 16.736 130.59 15.424 130.91 13.456H126.942V12.048H132.766C132.83 15.728 130.574 18.24 127.054 18.24ZM142.044 18L135.996 9.024V18H134.364V6.512H136.284L142.188 15.248V6.512H143.82V18H142.044Z" fill="black"/>
</svg>
