<svg width="19" height="18" viewBox="0 0 19 18" fill="none" xmlns="http://www.w3.org/2000/svg">
<path d="M9.5 3C10.2956 3 11.0587 3.31607 11.6213 3.87868C12.1839 4.44129 12.5 5.20435 12.5 6C12.5 6.79565 12.1839 7.55871 11.6213 8.12132C11.0587 8.68393 10.2956 9 9.5 9C8.70435 9 7.94129 8.68393 7.37868 8.12132C6.81607 7.55871 6.5 6.79565 6.5 6C6.5 5.20435 6.81607 4.44129 7.37868 3.87868C7.94129 3.31607 8.70435 3 9.5 3ZM9.5 10.5C12.815 10.5 15.5 11.8425 15.5 13.5V15H3.5V13.5C3.5 11.8425 6.185 10.5 9.5 10.5Z" fill="black"/>
</svg>
