<svg width="22" height="23" viewBox="0 0 22 23" fill="none" xmlns="http://www.w3.org/2000/svg">
<path d="M11 2.53613C6.05 2.53613 2 6.57713 2 11.5541C2 16.0541 5.294 19.7891 9.596 20.4641V14.1641H7.31V11.5541H9.596V9.56513C9.596 7.30613 10.937 6.06413 12.998 6.06413C13.979 6.06413 15.005 6.23513 15.005 6.23513V8.45813H13.871C12.755 8.45813 12.404 9.15113 12.404 9.86213V11.5541H14.906L14.501 14.1641H12.404V20.4641C14.5248 20.1292 16.456 19.0471 17.8489 17.4132C19.2419 15.7793 20.0048 13.7012 20 11.5541C20 6.57713 15.95 2.53613 11 2.53613V2.53613Z" fill="white"/>
</svg>
