<svg width="20" height="19" viewBox="0 0 20 19" fill="none" xmlns="http://www.w3.org/2000/svg">
<path d="M19.3336 9.16703V9.83363C19.3336 10.2018 19.0352 10.5003 18.667 10.5003H11.0003V18.167C11.0003 18.5351 10.7018 18.8336 10.3336 18.8336H9.66702C9.29882 18.8336 9.00032 18.5351 9.00032 18.167V10.5003H1.33366C0.965473 10.5003 0.666992 10.2018 0.666992 9.83363V9.16703C0.666992 8.79883 0.965473 8.50033 1.33366 8.50033H9.00032V0.833652C9.00032 0.465463 9.29882 0.166992 9.66702 0.166992H10.3336C10.7018 0.166992 11.0003 0.465463 11.0003 0.833652V8.50033H18.667C19.0352 8.50033 19.3336 8.79883 19.3336 9.16703Z" fill="black"/>
</svg>
