<svg width="18" height="18" viewBox="0 0 18 18" fill="none" xmlns="http://www.w3.org/2000/svg">
<path d="M6.75 2.25L5.3775 3.75H3C2.60218 3.75 2.22064 3.90804 1.93934 4.18934C1.65804 4.47064 1.5 4.85218 1.5 5.25V14.25C1.5 14.6478 1.65804 15.0294 1.93934 15.3107C2.22064 15.592 2.60218 15.75 3 15.75H15C15.3978 15.75 15.7794 15.592 16.0607 15.3107C16.342 15.0294 16.5 14.6478 16.5 14.25V5.25C16.5 4.85218 16.342 4.47064 16.0607 4.18934C15.7794 3.90804 15.3978 3.75 15 3.75H12.6225L11.25 2.25H6.75ZM9 13.5C8.00544 13.5 7.05161 13.1049 6.34835 12.4017C5.64509 11.6984 5.25 10.7446 5.25 9.75C5.25 8.75544 5.64509 7.80161 6.34835 7.09835C7.05161 6.39509 8.00544 6 9 6C9.99456 6 10.9484 6.39509 11.6517 7.09835C12.3549 7.80161 12.75 8.75544 12.75 9.75C12.75 10.7446 12.3549 11.6984 11.6517 12.4017C10.9484 13.1049 9.99456 13.5 9 13.5V13.5ZM9 12.75L9.9375 10.6875L12 9.75L9.9375 8.8125L9 6.75L8.0625 8.8125L6 9.75L8.0625 10.6875" fill="black"/>
</svg>
