<svg width="23" height="23" viewBox="0 0 23 23" fill="none" xmlns="http://www.w3.org/2000/svg">
<path d="M7.72 2.5H15.28C18.16 2.5 20.5 4.84 20.5 7.72V15.28C20.5 16.6644 19.95 17.9922 18.9711 18.9711C17.9922 19.95 16.6644 20.5 15.28 20.5H7.72C4.84 20.5 2.5 18.16 2.5 15.28V7.72C2.5 6.33557 3.04996 5.00784 4.0289 4.0289C5.00784 3.04996 6.33557 2.5 7.72 2.5V2.5ZM7.54 4.3C6.6807 4.3 5.85659 4.64136 5.24897 5.24897C4.64136 5.85659 4.3 6.6807 4.3 7.54V15.46C4.3 17.251 5.749 18.7 7.54 18.7H15.46C16.3193 18.7 17.1434 18.3586 17.751 17.751C18.3586 17.1434 18.7 16.3193 18.7 15.46V7.54C18.7 5.749 17.251 4.3 15.46 4.3H7.54ZM16.225 5.65C16.5234 5.65 16.8095 5.76853 17.0205 5.9795C17.2315 6.19048 17.35 6.47663 17.35 6.775C17.35 7.07337 17.2315 7.35952 17.0205 7.57049C16.8095 7.78147 16.5234 7.9 16.225 7.9C15.9266 7.9 15.6405 7.78147 15.4295 7.57049C15.2185 7.35952 15.1 7.07337 15.1 6.775C15.1 6.47663 15.2185 6.19048 15.4295 5.9795C15.6405 5.76853 15.9266 5.65 16.225 5.65ZM11.5 7C12.6935 7 13.8381 7.47411 14.682 8.31802C15.5259 9.16193 16 10.3065 16 11.5C16 12.6935 15.5259 13.8381 14.682 14.682C13.8381 15.5259 12.6935 16 11.5 16C10.3065 16 9.16193 15.5259 8.31802 14.682C7.47411 13.8381 7 12.6935 7 11.5C7 10.3065 7.47411 9.16193 8.31802 8.31802C9.16193 7.47411 10.3065 7 11.5 7V7ZM11.5 8.8C10.7839 8.8 10.0972 9.08446 9.59081 9.59081C9.08446 10.0972 8.8 10.7839 8.8 11.5C8.8 12.2161 9.08446 12.9028 9.59081 13.4092C10.0972 13.9155 10.7839 14.2 11.5 14.2C12.2161 14.2 12.9028 13.9155 13.4092 13.4092C13.9155 12.9028 14.2 12.2161 14.2 11.5C14.2 10.7839 13.9155 10.0972 13.4092 9.59081C12.9028 9.08446 12.2161 8.8 11.5 8.8Z" fill="white"/>
</svg>
