<svg width="36" height="37" viewBox="0 0 36 37" fill="none" xmlns="http://www.w3.org/2000/svg">
<path fill-rule="evenodd" clip-rule="evenodd" d="M19.35 0.5V13.46L25.8309 2.23655L28.1691 3.58655L21.6882 14.8109L32.9135 8.33086L34.2635 10.6691L23.0382 17.15H36V19.85H23.0391L34.2635 26.3309L32.9135 28.6691L21.6882 22.1882L28.1691 33.4134L25.8309 34.7634L19.35 23.5391V36.5H16.65V23.5382L10.1691 34.7634L7.83087 33.4134L14.31 22.1891L3.08654 28.6691L1.73654 26.3309L12.9609 19.8491L0 19.85V17.15L12.96 17.1491L1.73654 10.6691L3.08654 8.33086L14.31 14.81L7.83087 3.58655L10.1691 2.23655L16.65 13.4609V0.5H19.35Z" fill="white"/>
</svg>
