<svg width="18" height="18" viewBox="0 0 18 18" fill="none" xmlns="http://www.w3.org/2000/svg">
<path d="M9 9.75C8.00544 9.75 7.05161 9.35491 6.34835 8.65165C5.64509 7.94839 5.25 6.99456 5.25 6H6.75C6.75 6.59674 6.98705 7.16903 7.40901 7.59099C7.83097 8.01295 8.40326 8.25 9 8.25C9.59674 8.25 10.169 8.01295 10.591 7.59099C11.0129 7.16903 11.25 6.59674 11.25 6H12.75C12.75 6.99456 12.3549 7.94839 11.6517 8.65165C10.9484 9.35491 9.99456 9.75 9 9.75ZM9 2.25C9.59674 2.25 10.169 2.48705 10.591 2.90901C11.0129 3.33097 11.25 3.90326 11.25 4.5H6.75C6.75 3.90326 6.98705 3.33097 7.40901 2.90901C7.83097 2.48705 8.40326 2.25 9 2.25ZM14.25 4.5H12.75C12.75 4.00754 12.653 3.51991 12.4645 3.06494C12.2761 2.60997 11.9999 2.19657 11.6517 1.84835C11.3034 1.50013 10.89 1.22391 10.4351 1.03545C9.98009 0.846997 9.49246 0.75 9 0.75C8.00544 0.75 7.05161 1.14509 6.34835 1.84835C5.64509 2.55161 5.25 3.50544 5.25 4.5H3.75C2.9175 4.5 2.25 5.1675 2.25 6V15C2.25 15.3978 2.40804 15.7794 2.68934 16.0607C2.97064 16.342 3.35218 16.5 3.75 16.5H14.25C14.6478 16.5 15.0294 16.342 15.3107 16.0607C15.592 15.7794 15.75 15.3978 15.75 15V6C15.75 5.60218 15.592 5.22064 15.3107 4.93934C15.0294 4.65804 14.6478 4.5 14.25 4.5Z" fill="black"/>
</svg>
