<svg width="22" height="23" viewBox="0 0 22 23" fill="none" xmlns="http://www.w3.org/2000/svg">
<path d="M20.414 6.10005C19.721 6.41505 18.974 6.62205 18.2 6.72105C18.992 6.24405 19.604 5.48805 19.892 4.57905C19.145 5.02905 18.317 5.34405 17.444 5.52405C16.733 4.75005 15.734 4.30005 14.6 4.30005C12.485 4.30005 10.757 6.02805 10.757 8.16105C10.757 8.46705 10.793 8.76405 10.856 9.04305C7.652 8.88105 4.799 7.34205 2.9 5.01105C2.567 5.57805 2.378 6.24405 2.378 6.94605C2.378 8.28705 3.053 9.47505 4.097 10.15C3.458 10.15 2.864 9.97005 2.342 9.70005V9.72705C2.342 11.599 3.674 13.165 5.438 13.516C4.87165 13.671 4.27708 13.6926 3.701 13.579C3.94544 14.3463 4.42418 15.0176 5.06991 15.4987C5.71564 15.9798 6.4959 16.2464 7.301 16.261C5.93627 17.3414 4.24459 17.9254 2.504 17.917C2.198 17.917 1.892 17.899 1.586 17.863C3.296 18.961 5.33 19.6 7.508 19.6C14.6 19.6 18.497 13.714 18.497 8.61105C18.497 8.44005 18.497 8.27805 18.488 8.10705C19.244 7.56705 19.892 6.88305 20.414 6.10005V6.10005Z" fill="white"/>
</svg>
