<svg width="16" height="16" viewBox="0 0 16 16" fill="none" xmlns="http://www.w3.org/2000/svg">
<path d="M8 10.625C7.30381 10.625 6.63613 10.3484 6.14385 9.85616C5.65156 9.36387 5.375 8.69619 5.375 8C5.375 7.30381 5.65156 6.63613 6.14385 6.14385C6.63613 5.65156 7.30381 5.375 8 5.375C8.6962 5.375 9.36387 5.65156 9.85616 6.14385C10.3484 6.63613 10.625 7.30381 10.625 8C10.625 8.69619 10.3484 9.36387 9.85616 9.85616C9.36387 10.3484 8.6962 10.625 8 10.625V10.625ZM13.5725 8.7275C13.6025 8.4875 13.625 8.2475 13.625 8C13.625 7.7525 13.6025 7.505 13.5725 7.25L15.155 6.0275C15.2975 5.915 15.335 5.7125 15.245 5.5475L13.745 2.9525C13.655 2.7875 13.4525 2.72 13.2875 2.7875L11.42 3.5375C11.03 3.245 10.625 2.99 10.1525 2.8025L9.875 0.815001C9.85977 0.726664 9.81375 0.646572 9.74511 0.588915C9.67648 0.531258 9.58964 0.49976 9.5 0.500001H6.5C6.3125 0.500001 6.155 0.635001 6.125 0.815001L5.8475 2.8025C5.375 2.99 4.97 3.245 4.58 3.5375L2.7125 2.7875C2.5475 2.72 2.345 2.7875 2.255 2.9525L0.755002 5.5475C0.657502 5.7125 0.702502 5.915 0.845002 6.0275L2.4275 7.25C2.3975 7.505 2.375 7.7525 2.375 8C2.375 8.2475 2.3975 8.4875 2.4275 8.7275L0.845002 9.9725C0.702502 10.085 0.657502 10.2875 0.755002 10.4525L2.255 13.0475C2.345 13.2125 2.5475 13.2725 2.7125 13.2125L4.58 12.455C4.97 12.755 5.375 13.01 5.8475 13.1975L6.125 15.185C6.155 15.365 6.3125 15.5 6.5 15.5H9.5C9.6875 15.5 9.845 15.365 9.875 15.185L10.1525 13.1975C10.625 13.0025 11.03 12.755 11.42 12.455L13.2875 13.2125C13.4525 13.2725 13.655 13.2125 13.745 13.0475L15.245 10.4525C15.335 10.2875 15.2975 10.085 15.155 9.9725L13.5725 8.7275V8.7275Z" fill="black"/>
</svg>
