<svg width="19" height="18" viewBox="0 0 19 18" fill="none" xmlns="http://www.w3.org/2000/svg">
<path d="M16.25 14.25V15H2.75V14.25L4.25 12.75V8.25C4.25 5.925 5.7725 3.8775 8 3.2175V3C8 2.60218 8.15804 2.22064 8.43934 1.93934C8.72064 1.65804 9.10218 1.5 9.5 1.5C9.89782 1.5 10.2794 1.65804 10.5607 1.93934C10.842 2.22064 11 2.60218 11 3V3.2175C13.2275 3.8775 14.75 5.925 14.75 8.25V12.75L16.25 14.25ZM11 15.75C11 16.1478 10.842 16.5294 10.5607 16.8107C10.2794 17.092 9.89782 17.25 9.5 17.25C9.10218 17.25 8.72064 17.092 8.43934 16.8107C8.15804 16.5294 8 16.1478 8 15.75" fill="black"/>
</svg>
