<svg width="60" height="60" viewBox="0 0 60 60" fill="none" xmlns="http://www.w3.org/2000/svg">
<circle cx="30" cy="30" r="29" fill="url(#paint0_linear_1_720)"/>
<circle cx="30" cy="30" r="29" fill="url(#paint1_linear_1_720)" fill-opacity="0.12"/>
<circle cx="30" cy="30" r="29" stroke="url(#paint2_linear_1_720)" stroke-width="2"/>
<path d="M28.792 39.216C25.288 39.216 22.816 37.152 22.792 34.224H26.032C26.128 35.688 27.184 36.576 28.84 36.576C30.568 36.576 31.576 35.712 31.576 34.272C31.576 32.856 30.4 32.016 28.408 32.016H26.656V29.376H28.216C29.848 29.376 30.832 28.56 30.832 27.24C30.832 25.968 29.992 25.176 28.6 25.176C27.232 25.176 26.368 26.04 26.344 27.456H23.104C23.128 24.648 25.576 22.536 28.768 22.536C32.176 22.536 34.264 24.384 34.264 27C34.264 28.488 33.4 29.664 31.84 30.48C33.856 31.128 35.008 32.424 35.008 34.176C35.008 37.176 32.512 39.216 28.792 39.216Z" fill="#D9D9D9"/>
<defs>
<linearGradient id="paint0_linear_1_720" x1="45.5" y1="2" x2="15.5" y2="58" gradientUnits="userSpaceOnUse">
<stop stop-color="#121212"/>
<stop offset="0.499734" stop-color="#1E1E1C"/>
<stop offset="1" stop-color="#0F0F0F"/>
</linearGradient>
<linearGradient id="paint1_linear_1_720" x1="30" y1="2" x2="30" y2="58" gradientUnits="userSpaceOnUse">
<stop/>
<stop offset="1" stop-opacity="0"/>
</linearGradient>
<linearGradient id="paint2_linear_1_720" x1="30" y1="2" x2="30" y2="58" gradientUnits="userSpaceOnUse">
<stop stop-color="#404040"/>
<stop offset="1" stop-color="#161616"/>
</linearGradient>
</defs>
</svg>
