<svg width="60" height="60" viewBox="0 0 60 60" fill="none" xmlns="http://www.w3.org/2000/svg">
<circle cx="30" cy="30" r="29" fill="url(#paint0_linear_1_679)"/>
<circle cx="30" cy="30" r="29" fill="url(#paint1_linear_1_679)" fill-opacity="0.12"/>
<circle cx="30" cy="30" r="29" stroke="url(#paint2_linear_1_679)" stroke-width="2"/>
<path d="M35.48 36.024V39H24.152V37.104L29.072 32.064C30.944 30.144 31.736 29.136 31.736 27.72C31.736 26.4 30.848 25.512 29.432 25.512C27.872 25.512 26.912 26.496 26.912 28.08H23.672C23.672 24.84 26.12 22.536 29.6 22.536C32.84 22.536 35.216 24.576 35.216 27.312C35.216 29.28 34.496 30.528 31.664 33.384L29.216 36.024H35.48Z" fill="#D9D9D9"/>
<defs>
<linearGradient id="paint0_linear_1_679" x1="45.5" y1="2" x2="15.5" y2="58" gradientUnits="userSpaceOnUse">
<stop stop-color="#121212"/>
<stop offset="0.499734" stop-color="#1E1E1C"/>
<stop offset="1" stop-color="#0F0F0F"/>
</linearGradient>
<linearGradient id="paint1_linear_1_679" x1="30" y1="2" x2="30" y2="58" gradientUnits="userSpaceOnUse">
<stop/>
<stop offset="1" stop-opacity="0"/>
</linearGradient>
<linearGradient id="paint2_linear_1_679" x1="30" y1="2" x2="30" y2="58" gradientUnits="userSpaceOnUse">
<stop stop-color="#404040"/>
<stop offset="1" stop-color="#161616"/>
</linearGradient>
</defs>
</svg>
